<?xml version="1.0" encoding="utf-8"?>
<!-- Generator: Adobe Illustrator 18.1.0, SVG Export Plug-In . SVG Version: 6.00 Build 0)  -->
<svg version="1.1" id="Layer_1" xmlns="http://www.w3.org/2000/svg" xmlns:xlink="http://www.w3.org/1999/xlink" x="0px" y="0px"
	 viewBox="0 0 173.9 200" enable-background="new 0 0 173.9 200" xml:space="preserve">
	<g>
		<path fill="#FFFFFF" d="M15.1,20.3c2.2-2,36.1,32.1,75.8,76.2c39.7,44,70,81.4,67.8,83.3c-2.2,2-36.1-32.1-75.8-76.2 C43.3,59.6,12.9,22.2,15.1,20.3z"/>
		<ellipse transform="matrix(0.2345 -0.9721 0.9721 0.2345 -30.7443 160.9588)" fill="#FFFFFF" cx="86.8" cy="100" rx="102.9" ry="5.2"/>
		<path fill="#FFFFFF" d="M173.9,87.1c0.3,2.4-38.3,10.1-86.3,17.3c-48,7.2-87.3,11-87.6,8.6s38.3-10.1,86.3-17.3 C134.3,88.5,173.6,84.6,173.9,87.1z"/>
		<circle fill="#FFFFFF" cx="86.1" cy="100.6" r="53.6"/>
	</g>
</svg>
