<?xml version="1.0" encoding="utf-8"?>
<!-- Generator: Adobe Illustrator 18.1.0, SVG Export Plug-In . SVG Version: 6.00 Build 0)  -->
<svg version="1.1" id="Layer_1" xmlns="http://www.w3.org/2000/svg" xmlns:xlink="http://www.w3.org/1999/xlink" x="0px" y="0px"
	 viewBox="0 0 173.1 200" enable-background="new 0 0 173.1 200" xml:space="preserve">
<g>
	
		<rect x="-9.3" y="18.3" transform="matrix(-5.182832e-02 0.9987 -0.9987 -5.182832e-02 190.9034 18.7472)" fill="none" width="191.8" height="163.4"/>
	<g>
		<g>
			<path style="opacity: 0" fill="#FFFFFF" d="M18.5,24.5c2.1-1.9,34.2,30.4,71.9,72.2c37.6,41.7,66.4,77.1,64.3,78.9
				c-2.1,1.9-34.2-30.4-71.9-72.2C45.2,61.7,16.4,26.3,18.5,24.5z"/>
			<path style="opacity: 0.1667" fill="#FFFFFF" d="M89.9,97c34.7,38.5,61.2,70.9,60.7,74.1c-3.2,0.2-32.7-29.5-67.4-68
				C48.5,64.5,22,32.1,22.5,29C25.7,28.8,55.2,58.5,89.9,97z"/>
			<path style="opacity: 0.3333" fill="#FFFFFF" d="M89.5,97.3c31.8,35.3,55.9,64.7,57,69.2c-4.3-1.5-31.2-28.6-62.9-63.8
				c-31.8-35.3-55.9-64.7-57-69.2C30.9,35,57.7,62.1,89.5,97.3z"/>
			<path style="opacity: 0.5" fill="#FFFFFF" d="M89.1,97.7c28.9,32,50.7,58.6,53.3,64.3c-5.4-3.2-29.6-27.6-58.5-59.7
				C55.1,70.3,33.3,43.7,30.7,38C36.1,41.2,60.3,65.7,89.1,97.7z"/>
			<path style="opacity: 0.6667" fill="#FFFFFF" d="M88.7,98c25.9,28.8,45.5,52.4,49.6,59.5c-6.6-4.8-28.1-26.7-54-55.5
				C58.4,73.2,38.9,49.5,34.7,42.5C41.3,47.4,62.8,69.2,88.7,98z"/>
			<path style="opacity: 0.8333" fill="#FFFFFF" d="M88.3,98.4c23,25.6,40.3,46.3,45.9,54.6c-7.7-6.5-26.5-25.8-49.5-51.3
				C61.7,76.1,44.5,55.3,38.8,47C46.5,53.6,65.3,72.8,88.3,98.4z"/>
			<path fill="#FFFFFF" d="M88,98.7c20.1,22.3,35,40.1,42.3,49.7c-8.8-8.2-25-24.9-45.1-47.2C65,78.9,50.1,61.2,42.9,51.5
				C51.7,59.7,67.8,76.4,88,98.7z"/>
		</g>
		<g style="opacity: 0.8">
			
				<ellipse transform="matrix(0.2341 -0.9722 0.9722 0.2341 -30.9338 160.7317)" style="opacity: 0" fill="#FFFFFF" cx="86.6" cy="100" rx="97.5" ry="4.9"/>
			<path style="opacity: 0.1667" fill="#FFFFFF" d="M90.8,101c-11.6,48.3-22.9,86.8-25.7,88.1c-1.9-2.4,5.6-41.9,17.2-90.2
				C94,50.7,105.2,12.1,108,10.8C109.9,13.3,102.4,52.7,90.8,101z"/>
			<path style="opacity: 0.3333" fill="#FFFFFF" d="M90.3,100.9c-10.7,44.3-20.9,79.4-23.8,82.6c-1.2-4.2,5.7-40.1,16.4-84.4
				c10.7-44.3,20.9-79.4,23.8-82.6C107.8,20.7,100.9,56.6,90.3,100.9z"/>
			<path style="opacity: 0.5" fill="#FFFFFF" d="M89.8,100.8c-9.7,40.2-18.8,71.9-22,77c-0.4-6,5.8-38.4,15.5-78.6
				c9.7-40.2,18.8-71.9,22-77C105.7,28.2,99.5,60.6,89.8,100.8z"/>
			<path style="opacity: 0.6667" fill="#FFFFFF" d="M89.3,100.7c-8.7,36.1-16.8,64.4-20.1,71.5c0.3-7.8,5.9-36.7,14.6-72.8
				c8.7-36.1,16.8-64.4,20.1-71.5C103.7,35.7,98,64.5,89.3,100.7z"/>
			<path style="opacity: 0.8333" fill="#FFFFFF" d="M88.8,100.5c-7.7,32.1-14.8,56.9-18.3,65.9c1-9.6,6-35,13.8-67
				c7.7-32.1,14.8-56.9,18.3-65.9C101.6,43.1,96.5,68.5,88.8,100.5z"/>
			<path fill="#FFFFFF" d="M88.3,100.4c-6.7,28-12.7,49.5-16.4,60.4c1.7-11.4,6.1-33.2,12.9-61.2c6.7-28,12.7-49.5,16.4-60.4
				C99.5,50.6,95.1,72.4,88.3,100.4z"/>
		</g>
		<g style="opacity: 0.8">
			<path style="opacity: 0" fill="#FFFFFF" d="M169,87.7c0.3,2.3-36.3,9.6-81.8,16.4c-45.5,6.8-82.7,10.5-83,8.2
				c-0.3-2.3,36.3-9.6,81.8-16.4C131.5,89.1,168.7,85.4,169,87.7z"/>
			<path style="opacity: 0.1667" fill="#FFFFFF" d="M87.1,103.7c-42,6.3-76.1,9.7-78.1,7.9c1.3-2.3,35-9,77-15.2c42-6.3,76.1-9.7,78.1-7.9
				C162.7,90.7,129.1,97.4,87.1,103.7z"/>
			<path style="opacity: 0.3333" fill="#FFFFFF" d="M87,103.2c-38.5,5.7-69.6,8.9-73.1,7.6c3-2.3,33.6-8.3,72.1-14.1
				c38.5-5.7,69.6-8.9,73.1-7.6C156.2,91.4,125.5,97.5,87,103.2z"/>
			<path style="opacity: 0.5" fill="#FFFFFF" d="M87,102.8c-34.9,5.2-63,8.1-68.1,7.3c4.6-2.3,32.3-7.7,67.2-12.9c34.9-5.2,63-8.1,68.1-7.3
				C149.6,92.2,121.9,97.6,87,102.8z"/>
			<path style="opacity: 0.6667" fill="#FFFFFF" d="M86.9,102.4c-31.4,4.7-56.4,7.3-63.1,7c6.3-2.3,31-7.1,62.4-11.8
				c31.4-4.7,56.4-7.3,63.1-7C143,92.9,118.3,97.7,86.9,102.4z"/>
			<path style="opacity: 0.8333" fill="#FFFFFF" d="M86.8,102c-27.9,4.2-49.8,6.6-58.1,6.7c7.9-2.3,29.6-6.4,57.5-10.6
				c27.9-4.2,49.8-6.5,58.1-6.7C136.4,93.7,114.7,97.8,86.8,102z"/>
			<path fill="#FFFFFF" d="M86.8,101.5c-24.4,3.6-43.3,5.8-53.1,6.4c9.6-2.3,28.3-5.8,52.6-9.4c24.4-3.6,43.3-5.8,53.1-6.4
				C129.8,94.4,111.1,97.9,86.8,101.5z"/>
		</g>
		<g>
			<circle style="opacity: 0" fill="#FFFFFF" cx="85.8" cy="100.6" r="50.8"/>
			<path style="opacity: 7.692000e-03" fill="#FFFFFF" d="M88.5,50.4c27.7,1.4,49.1,25.1,47.6,52.8c-1.4,27.7-25.1,49.1-52.9,47.6
				c-27.7-1.4-49.1-25.1-47.6-52.8C37,70.3,60.7,49,88.5,50.4z"/>
			<circle style="opacity: 1.538500e-02" fill="#FFFFFF" cx="85.8" cy="100.6" r="49.8"/>
			<circle style="opacity: 2.307700e-02" fill="#FFFFFF" cx="85.8" cy="100.6" r="49.3"/>
			<circle style="opacity: 3.076900e-02" fill="#FFFFFF" cx="85.8" cy="100.6" r="48.9"/>
			<circle style="opacity: 3.846100e-02" fill="#FFFFFF" cx="85.8" cy="100.6" r="48.4"/>
			<circle style="opacity: 4.615400e-02" fill="#FFFFFF" cx="85.8" cy="100.6" r="47.9"/>
			<path style="opacity: 5.384600e-02" fill="#FFFFFF" d="M88.3,53.3c26.1,1.4,46.2,23.7,44.9,49.8c-1.4,26.1-23.7,46.2-49.8,44.9
				s-46.2-23.6-44.9-49.8C39.9,72,62.2,51.9,88.3,53.3z"/>
			<circle style="opacity: 6.153800e-02" fill="#FFFFFF" cx="85.8" cy="100.6" r="46.9"/>
			<circle style="opacity: 6.923100e-02" fill="#FFFFFF" cx="85.8" cy="100.6" r="46.4"/>
			<circle style="opacity: 7.692300e-02" fill="#FFFFFF" cx="85.8" cy="100.6" r="45.9"/>
			<path style="opacity: 8.461500e-02" fill="#FFFFFF" d="M88.2,55.2c25.1,1.3,44.3,22.7,43,47.8s-22.7,44.3-47.8,43
				c-25.1-1.3-44.3-22.7-43-47.8S63.1,53.9,88.2,55.2z"/>
			<circle style="opacity: 9.230800e-02" fill="#FFFFFF" cx="85.8" cy="100.6" r="45"/>
			<path style="opacity: 0.1" fill="#FFFFFF" d="M88.1,56.2c24.5,1.3,43.4,22.2,42.1,46.7c-1.3,24.5-22.2,43.4-46.7,42.1
				s-43.4-22.2-42.1-46.7C42.7,73.8,63.6,54.9,88.1,56.2z"/>
			<path style="opacity: 0.1077" fill="#FFFFFF" d="M88.1,56.7c24.3,1.3,42.9,22,41.7,46.2c-1.3,24.3-22,42.9-46.2,41.7
				c-24.3-1.3-42.9-22-41.7-46.2C43.2,74.1,63.9,55.4,88.1,56.7z"/>
			<path style="opacity: 0.1154" fill="#FFFFFF" d="M88.1,57.2c24,1.2,42.5,21.7,41.2,45.7c-1.2,24-21.7,42.4-45.7,41.2
				c-24-1.2-42.5-21.7-41.2-45.7C43.6,74.4,64.1,55.9,88.1,57.2z"/>
			<circle style="opacity: 0.1231" fill="#FFFFFF" cx="85.8" cy="100.6" r="43"/>
			<path style="opacity: 0.1308" fill="#FFFFFF" d="M88,58.1c23.5,1.2,41.5,21.2,40.3,44.7c-1.2,23.5-21.2,41.5-44.7,40.3
				s-41.5-21.2-40.3-44.7C44.6,75,64.6,56.9,88,58.1z"/>
			<circle style="opacity: 0.1385" fill="#FFFFFF" cx="85.8" cy="100.6" r="42.1"/>
			<circle style="opacity: 0.1462" fill="#FFFFFF" cx="85.8" cy="100.6" r="41.6"/>
			<path style="opacity: 0.1538" fill="#FFFFFF" d="M88,59.6c22.7,1.2,40.1,20.5,38.9,43.2c-1.2,22.7-20.5,40.1-43.2,38.9
				c-22.7-1.2-40.1-20.5-38.9-43.2C46,75.8,65.3,58.4,88,59.6z"/>
			<circle style="opacity: 0.1615" fill="#FFFFFF" cx="85.8" cy="100.6" r="40.6"/>
			<path style="opacity: 0.1692" fill="#FFFFFF" d="M87.9,60.6c22.1,1.1,39.1,20,38,42.1c-1.1,22.1-20,39.1-42.1,38
				c-22.1-1.1-39.1-20-38-42.1C46.9,76.4,65.8,59.4,87.9,60.6z"/>
			<circle style="opacity: 0.1769" fill="#FFFFFF" cx="85.8" cy="100.6" r="39.6"/>
			<circle style="opacity: 0.1846" fill="#FFFFFF" cx="85.8" cy="100.6" r="39.2"/>
			<circle style="opacity: 0.1923" fill="#FFFFFF" cx="85.8" cy="100.6" r="38.7"/>
			<circle style="opacity: 0.2" fill="#FFFFFF" cx="85.8" cy="100.6" r="38.2"/>
			<path style="opacity: 0.2308" fill="#FFFFFF" d="M87.8,63.4c20.5,1.1,36.3,18.6,35.3,39.1c-1.1,20.5-18.6,36.3-39.1,35.3
				c-20.5-1.1-36.3-18.6-35.3-39.1C49.7,78.2,67.2,62.4,87.8,63.4z"/>
			<path style="opacity: 0.2615" fill="#FFFFFF" d="M87.7,64.4c20,1,35.4,18.1,34.4,38.2c-1,20-18.1,35.4-38.2,34.4
				c-20-1-35.4-18.1-34.4-38.2C50.6,78.7,67.7,63.3,87.7,64.4z"/>
			<circle style="opacity: 0.2923" fill="#FFFFFF" cx="85.8" cy="100.6" r="35.4"/>
			<circle style="opacity: 0.3231" fill="#FFFFFF" cx="85.8" cy="100.6" r="34.5"/>
			<path style="opacity: 0.3538" fill="#FFFFFF" d="M87.6,67.2c18.5,1,32.7,16.7,31.8,35.2c-1,18.5-16.7,32.7-35.2,31.7
				c-18.5-1-32.7-16.7-31.8-35.2C53.3,80.4,69.1,66.2,87.6,67.2z"/>
			<circle style="opacity: 0.3846" fill="#FFFFFF" cx="85.8" cy="100.6" r="32.6"/>
			<circle style="opacity: 0.4154" fill="#FFFFFF" cx="85.8" cy="100.6" r="31.7"/>
			<path style="opacity: 0.4462" fill="#FFFFFF" d="M87.4,69.9c17,0.9,30,15.3,29.1,32.3c-0.9,17-15.3,30-32.3,29.1
				c-17-0.9-30-15.3-29.1-32.3C56,82.1,70.5,69.1,87.4,69.9z"/>
			<path style="opacity: 0.4769" fill="#FFFFFF" d="M87.4,70.9c16.4,0.9,29.1,14.9,28.2,31.3c-0.9,16.4-14.9,29.1-31.3,28.2
				c-16.4-0.9-29.1-14.9-28.2-31.3C56.9,82.7,70.9,70,87.4,70.9z"/>
			<circle style="opacity: 0.5077" fill="#FFFFFF" cx="85.8" cy="100.6" r="28.9"/>
			<path style="opacity: 0.5385" fill="#FFFFFF" d="M87.3,72.7c15.4,0.8,27.3,13.9,26.5,29.4c-0.8,15.4-14,27.3-29.4,26.5
				c-15.4-0.8-27.3-13.9-26.5-29.4C58.7,83.8,71.9,71.9,87.3,72.7z"/>
			<circle style="opacity: 0.5692" fill="#FFFFFF" cx="85.8" cy="100.6" r="27"/>
			<circle style="opacity: 0.6" fill="#FFFFFF" cx="85.8" cy="100.6" r="26.1"/>
			<circle style="opacity: 0.6308" fill="#FFFFFF" cx="85.8" cy="100.6" r="25.2"/>
			<circle style="opacity: 0.6615" fill="#FFFFFF" cx="85.8" cy="100.6" r="24.2"/>
			<circle style="opacity: 0.6923" fill="#FFFFFF" cx="85.8" cy="100.6" r="23.3"/>
			<circle style="opacity: 0.7231" fill="#FFFFFF" cx="85.8" cy="100.6" r="22.4"/>
			<circle style="opacity: 0.7538" fill="#FFFFFF" cx="85.8" cy="100.6" r="21.4"/>
			<circle style="opacity: 0.7846" fill="#FFFFFF" cx="85.8" cy="100.6" r="20.5"/>
			<circle style="opacity: 0.8154" fill="#FFFFFF" cx="85.8" cy="100.6" r="19.6"/>
			<circle style="opacity: 0.8462" fill="#FFFFFF" cx="85.8" cy="100.6" r="18.7"/>
			<circle style="opacity: 0.8769" fill="#FFFFFF" cx="85.8" cy="100.6" r="17.7"/>
			<circle style="opacity: 0.9077" fill="#FFFFFF" cx="85.8" cy="100.6" r="16.8"/>
			<circle style="opacity: 0.9385" fill="#FFFFFF" cx="85.8" cy="100.6" r="15.9"/>
			<circle style="opacity: 0.9692" fill="#FFFFFF" cx="85.8" cy="100.6" r="14.9"/>
			<circle fill="#FFFFFF" cx="85.8" cy="100.6" r="14"/>
		</g>
	</g>
</g>
</svg>
