<?xml version="1.0" encoding="utf-8"?>
<!-- Generator: Adobe Illustrator 18.1.0, SVG Export Plug-In . SVG Version: 6.00 Build 0)  -->
<svg version="1.1" id="Layer_1" xmlns="http://www.w3.org/2000/svg" xmlns:xlink="http://www.w3.org/1999/xlink" x="0px" y="0px"
	 viewBox="0 0 200 193.8" enable-background="new 0 0 200 193.8" xml:space="preserve">
	<g>
		<path fill="#FFFFFF" d="M127.1,193.8c-1.3,0.3-14.5-42.7-29.5-96.3C82.7,44,71.6,0.3,72.9,0c1.3-0.3,14.5,42.7,29.5,96.3 C117.3,149.8,128.4,193.4,127.1,193.8z"/>
		<path fill="#FFFFFF" d="M200,108c-0.1,1.3-45.1-2.5-100.3-8.7C44.5,93.2-0.2,87.2,0,85.8c0.1-1.3,45.1,2.5,100.3,8.7 C155.5,100.7,200.2,106.7,200,108z"/>
		<path fill="#FFFFFF" d="M167.2,18.7c1.1,1-28.1,36.7-65.3,80c-37.1,43.2-68.2,77.4-69.3,76.6c-1.1-1,28.2-36.7,65.3-80 C135.2,52,166.2,17.7,167.2,18.7z"/>
		<path fill="#FFFFFF" d="M114.2,189.1c-1.1,0.3-12.2-36.1-24.9-81.1c-12.6-45.2-22.1-82-21-82.3c1.1-0.3,12.2,36.1,24.9,81.1 C105.8,152,115.3,188.8,114.2,189.1z"/>
		<path fill="#FFFFFF" d="M175.6,116.7c-0.1,1.1-38-2.1-84.5-7.3C44.5,104.2,6.9,99.2,7,98.1c0.1-1.1,38,2.1,84.5,7.3 C138.1,110.5,175.7,115.6,175.6,116.7z"/>
		<path fill="#FFFFFF" d="M149.3,92.9c2,27.5-18.6,51.5-46,53.4s-51.3-18.6-53.4-46c-2-27.5,18.6-51.3,46-53.4 C123.3,44.9,147.3,65.5,149.3,92.9z"/>
		<path fill="#FFFFFF" d="M133.4,172.9c-1,0.3-11.2-32.8-22.7-73.9c-11.4-41-20.1-74.5-19.1-74.9c1-0.3,11.2,32.8,22.7,73.9 C125.8,139.1,134.4,172.6,133.4,172.9z"/>
		<path fill="#FFFFFF" d="M164.2,38.5c0.9,0.7-21.6,28.2-50.2,61.3c-28.5,33.2-52.3,59.5-53.1,58.8c-0.9-0.7,21.6-28.2,50.2-61.3 C139.6,64.1,163.3,37.8,164.2,38.5z"/>
	</g>
</svg>
